<svg xmlns="http://www.w3.org/2000/svg" viewBox="0 0 64 64" width="64" height="64" aria-hidden="true">
	<defs>
		<linearGradient id="g" x1="0" x2="1" y1="0" y2="1">
			<stop offset="0" stop-color="#ffd9d0"/>
			<stop offset="1" stop-color="#ffb3a7"/>
		</linearGradient>
	</defs>
	<rect width="64" height="64" rx="10" ry="10" fill="#fff7ef"/>
	<!-- envelope -->
	<g transform="translate(6,14)">
		<rect width="52" height="28" rx="4" ry="4" fill="#fff" stroke="#f3c6b3" stroke-width="1.5"/>
		<path d="M0 0 L26 16 L52 0" fill="#fff" stroke="#f3c6b3" stroke-width="1.5"/>
		<path d="M0 0 L26 16 L52 0 L52 28 L0 28 Z" fill="url(#g)" opacity="0.9"/>
	</g>
	<!-- heart seal -->
	<g transform="translate(36,28)">
		<path d="M8 1 C8 1 12 -1 16 1 C20 -1 24 1 24 5 C24 9 16 13 16 13 C16 13 8 9 8 5 C8 3 8 1 8 1 Z" fill="#ff6b81" transform="translate(-8,-1) scale(0.9)"/>
	</g>
</svg>
